# Made in Blockbench 4.2.5
mtllib panneaux solaire.mtl

o cube
v 0.525 0.922854489458178 -0.24233963727973834
v 0.525 0.6244979208476961 -0.27369817626003434
v 0.525 0.9130549460268356 -0.14910320958896273
v 0.525 0.6146983774163536 -0.18046174856925876
v 0.225 0.6244979208476961 -0.27369817626003434
v 0.225 0.922854489458178 -0.24233963727973834
v 0.225 0.6146983774163536 -0.18046174856925876
v 0.225 0.9130549460268356 -0.14910320958896273
vt 0.5 1
vt 1 1
vt 1 0.84375
vt 0.5 0.84375
vt 0.5 0.84375
vt 1 0.84375
vt 1 0.6875
vt 0.5 0.6875
vt 0.5 0.6875
vt 1 0.6875
vt 1 0.53125
vt 0.5 0.53125
vt 0.5 0.53125
vt 1 0.53125
vt 1 0.375
vt 0.5 0.375
vt 0.5 0.5
vt 0 0.5
vt 0 1
vt 0.5 1
vt 0.5 0.5
vt 0 0.5
vt 0 0
vt 0.5 0
vn 0 -0.9945218953682734 -0.10452846326765344
vn 1 0 0
vn 0 0.9945218953682734 0.10452846326765344
vn -1 0 0
vn 0 0.10452846326765344 -0.9945218953682734
vn 0 -0.10452846326765344 0.9945218953682734
usemtl m_0
f 4/4/1 7/3/1 5/2/1 2/1/1
f 3/8/2 4/7/2 2/6/2 1/5/2
f 8/12/3 3/11/3 1/10/3 6/9/3
f 7/16/4 8/15/4 6/14/4 5/13/4
f 6/20/5 1/19/5 2/18/5 5/17/5
f 7/24/6 4/23/6 3/22/6 8/21/6